<svg xmlns="http://www.w3.org/2000/svg" viewBox="0 0 512 512" enable-background="new 0 0 512 512"><path fill="#49555D" d="M463.6 416.1H48.3c-8.8 0-16-7.2-16-16.1V111.1c0-8.8 7.2-16.1 16-16.1h415.2c8.8 0 16 7.2 16 16.1v288.8c0 9-7.2 16.2-15.9 16.2zM479.5 63H32.1C14.6 63 .5 77.3.5 94.7v321.6c0 17.6 14.2 31.7 31.6 31.7h447.8c17.5 0 31.6-14.3 31.6-31.7V94.8c0-17.6-14.2-31.7-31.6-31.7h-.4V63z"/><path fill="#42B3FF" d="M255.9 277.8c-7.4 0-14.6-2.2-20.6-6.3L66.6 159c-5.1-3.3-8.1-8.9-8.1-15.2v-.3c0-10 8.2-18.3 18.3-18.3 3.5 0 7 1.1 10 3L241 231c4.4 3 9.6 4.6 15.1 4.6 5.4 0 10.5-1.6 15.1-4.5l154.1-102.9c3-2 6.5-3.1 10-3.1 10.1 0 18.3 8.2 18.3 18.3v.3c0 6.1-3.1 12-8.2 15.3L276.6 271.6c-6.1 4-13.2 6.2-20.7 6.2"/></svg>
