<svg xmlns="http://www.w3.org/2000/svg" viewBox="0 0 512 512"><path fill="#49555D" d="M66.2 1v510h379.5V147.8H304.5V1H66.2zm32.1 32h174.1v146.8h141.3V479H98.3V33z"/><path fill="#49555D" d="M339 107.7h106.8L339 1z"/><path fill="#42B3FF" d="M356.3 358.1c7 1.3 7.1 4.1 5.9 4.7-1.2.6-4.6.9-6.8.9-7.1 0-15.9-2.5-28.2-6.5 4.7-.3 9.1-.4 13-.4 7 0 9.1 0 16.1 1.3m-124-1.3c3.1-4.8 6.4-9.9 9.7-15.3 8.1-13.2 13.3-23.6 17-32.1 7.6 11.9 17 22 28.2 30.1 1.4 1 2.9 2 4.4 3.1-22.6 3.8-42.1 8.5-59.3 14.2m24.9-130.5c3 0 4.6 11.8 4.8 22.9.1 11.1-1.5 18.8-3.5 24.6-1.7-8.5-2.5-21.9-2.5-30.7 0 0-.1-16.8 1.2-16.8M173 416.1c2.8-6.5 13.7-19.5 29.8-30.9 1-.7 3.5-2.7 5.8-4.6-16.9 23.3-28.2 32.6-35.6 35.5m136.2-74c-5.5-3.2-11.2-6.8-15.7-11-12-11.4-22.1-27.3-28.3-44.7.4-1.6.7-3.1 1.1-4.5 0 0 6.8-39.1 5-52.4-.3-1.8-.4-2.3-.9-3.7l-.6-1.5c-1.9-4.3-5.5-9.4-11.1-9.1l-3.3-.6h-.1c-6.3 0-11.5 3.7-12.8 8.6-4.1 15.4.1 38.7 7.8 68.6l-2 5c-5.5 13.7-12.4 27.5-18.5 39.6l-.8 1.6c-6.4 12.7-12.2 23.6-17.5 32.7l-5.4 2.9c-.4.2-9.7 5.2-11.9 6.6-18.5 11.3-30.8 24-32.8 34.2-.6 3.2-.2 7.4 3.1 9.3l5.3 2.7c2.3 1.2 4.7 1.7 7.1 1.7 13.2 0 28.5-16.7 49.6-54.2 24.4-8.1 52.1-14.8 76.4-18.5 18.5 10.6 41.3 18 55.7 18 2.5 0 4.7-.3 6.5-.7 2.8-.7 5.1-2.3 6.5-4.5 2.8-4.3 3.4-10.1 2.6-16.2-.2-1.8-1.6-4-3.2-5.5-4.3-4.3-13.7-6.5-28.1-6.7-9.6-.3-21.4.6-33.7 2.3"/></svg>