<svg xmlns="http://www.w3.org/2000/svg" viewBox="0 0 512 512"><path fill="#fff" d="M473.5 477.7h-59.9c-2.4 0-4.3-1.9-4.3-4.3V290.1c0-9.4-7.7-17.1-17.1-17.1l-273.6-.3c-4.5 0-8.9 1.8-12.1 5-3.2 3.2-5 7.6-5 12.1v183.7c0 2.4-1.9 4.3-4.3 4.3H37.5c-2.4 0-4.3-1.9-4.3-4.3v-436c0-2.4 1.9-4.3 4.3-4.3h299.9c1 0 1.8.3 2.7.9l136.2 105.1c1.1.9 1.7 2 1.7 3.4v330.7c-.2 2.5-2.1 4.4-4.5 4.4m-102.6 0H140.1c-2.4 0-4.3-1.9-4.3-4.3V306.8l239.4.3v166.3c0 2.4-1.9 4.3-4.3 4.3m134.5-359.2L355.1 2.5c-3-2.4-6.6-3.5-10.5-3.5H180.4c-52 .1-104.2.1-164.3.1C6.7-.9-1 6.8-1 16.2v478.7c0 4.5 1.8 8.9 5 12.1 3.2 3.2 7.6 5 12.1 5H119.1l271.6-.1c.5 0 1.1.1 1.6.1s1.1 0 1.6-.1h101c9.4 0 17.1-7.7 17.1-17.1V132c0-5.2-2.5-10.3-6.6-13.5"/><path fill="#fff" d="M245.6 94.4H110.3c-8.7 0-15.9 8.1-15.9 17.9s7.2 17.9 15.9 17.9h135.2c8.7 0 15.9-8.1 15.9-17.9s-7.1-17.9-15.8-17.9"/></svg>